# xmcd
#
# Track frame offsets:
#	150
#	14390
#	28332
#	43442
#	58123
#	73195
#	87475
#	105225
#	120529
#	131778
#	146642
#	158858
#
# Disc length: 2313 seconds
#
# Revision: 0
# Processed by: cddbd v1.5.1PL2 Copyright (c) Steve Scherf et al.
# Submitted via: audiograbber 1.83.01
#
DISCID=b209070c
DTITLE=All Roses - -
DYEAR=2006
DGENRE=Other
TTITLE0=Radio on
TTITLE1=Buffalos
TTITLE2=Red roses
TTITLE3=Great grey sky
TTITLE4=Choose me
TTITLE5=No doubt
TTITLE6=Signs and wonders
TTITLE7=Closer to the sun
TTITLE8=Didalada
TTITLE9=Bitch
TTITLE10=Rebel  in white
TTITLE11=Never ending story
EXTD=
EXTT0=
EXTT1=
EXTT2=
EXTT3=
EXTT4=
EXTT5=
EXTT6=
EXTT7=
EXTT8=
EXTT9=
EXTT10=
EXTT11=
PLAYORDER=
